<?xml version="1.0" encoding="utf-8"?>
<!-- Generator: Adobe Illustrator 21.1.0, SVG Export Plug-In . SVG Version: 6.00 Build 0)  -->
<svg version="1.1" id="Layer_1" xmlns="http://www.w3.org/2000/svg" xmlns:xlink="http://www.w3.org/1999/xlink" x="0px" y="0px"
	 viewBox="0 0 250 300" style="enable-background:new 0 0 250 300;" xml:space="preserve">
<style type="text/css">
	.st0{fill:#FFFFFF;}
</style>
<path class="st0" d="M0,0v300h250V0H0z M114.6,297.1c-11.7,3.7-22.3,3.2-31.6-1.7c-9.3-4.8-15.8-13.1-19.5-24.8L43,205.8
	c-0.8-2.6-2.4-4.5-4.6-5.7c-2.3-1.2-4.7-1.4-7.3-0.5l-11.6,3.7L8,167.1l11.6-3.7c2.6-0.8,4.5-2.4,5.6-4.6c1.2-2.3,1.4-4.7,0.5-7.3
	L5.4,86.8C1.6,75.1,2.2,64.6,7,55.3c4.8-9.3,13.1-15.8,24.8-19.5l33.6-10.7L77,61.3l-16.8,5.3c-2.6,0.8-4.5,2.4-5.6,4.6
	c-1.2,2.3-1.4,4.7-0.5,7.3l16.8,53c4.8,15,0.4,28.2-13,39.7c17.6,1.6,28.8,10,33.5,25l16.8,53c0.8,2.6,2.4,4.5,4.6,5.7
	c2.3,1.2,4.7,1.4,7.3,0.5l16.8-5.3l11.5,36.2L114.6,297.1z M243,244.7c-4.8,9.3-13.1,15.8-24.8,19.5l-33.6,10.7L173,238.7l16.8-5.3
	c2.6-0.8,4.5-2.4,5.6-4.6c1.2-2.3,1.4-4.7,0.5-7.3l-16.8-53c-4.8-15-0.4-28.2,13-39.7c-17.6-1.6-28.8-10-33.5-25l-16.8-53
	c-0.8-2.6-2.4-4.5-4.6-5.6c-2.3-1.2-4.7-1.4-7.3-0.5l-16.8,5.3l-11.5-36.2l33.6-10.7c11.7-3.7,22.2-3.2,31.6,1.7
	c9.3,4.8,15.8,13.1,19.5,24.8L207,94.2c0.8,2.6,2.4,4.5,4.6,5.6c2.3,1.2,4.7,1.4,7.3,0.5l11.6-3.7l11.5,36.2l-11.6,3.7
	c-2.6,0.8-4.5,2.4-5.6,4.6c-1.2,2.3-1.4,4.7-0.5,7.3l20.5,64.7C248.4,224.9,247.8,235.4,243,244.7z"/>
</svg>
